<svg version="1.1" id="Layer_1" xmlns="http://www.w3.org/2000/svg" xmlns:xlink="http://www.w3.org/1999/xlink" x="0px" y="0px"
	 width="559px" height="447px" viewBox="0 0 754 603" enable-background="new 0 0 754 603" xml:space="preserve">
<path fill="#000000" opacity="0.000000" stroke="none"
	d="
M754.000000,604.000000 
	C503.077667,604.000000 252.155350,604.000000 1.000000,604.000000 
	C1.000000,403.639862 1.000000,203.279633 1.459705,2.459560 
	C250.580322,1.999701 499.241241,1.999434 747.902161,2.004194 
	C749.900269,2.004233 751.898438,2.072479 753.941223,2.559593 
	C753.990601,203.340210 753.995300,403.670105 754.000000,604.000000 
M330.736938,307.144714 
	C330.736938,307.144714 330.663757,307.340271 330.740448,307.994659 
	C332.334137,310.021149 333.927856,312.047638 335.863220,314.678040 
	C336.224365,314.956909 336.585510,315.235809 336.984589,315.849335 
	C337.104614,316.071655 337.290710,316.175751 337.825836,316.794830 
	C341.044891,319.599213 344.263977,322.403564 347.890259,325.783020 
	C350.879120,327.536194 353.867981,329.289398 357.366302,331.520905 
	C360.251190,332.677826 363.136108,333.834747 366.572510,335.473633 
	C371.977325,336.548645 377.382172,337.623688 383.705750,338.922424 
	C386.469666,338.894714 389.233582,338.867035 392.884949,339.013733 
	C395.591949,338.954376 398.298920,338.895050 401.907593,339.009827 
	C405.273926,338.951569 408.640228,338.893311 412.907837,339.011414 
	C416.272308,338.953400 419.636749,338.895355 423.887512,339.014099 
	C426.592651,338.955048 429.297821,338.896027 432.888916,339.012665 
	C435.593048,338.953369 438.297180,338.894073 441.887146,339.012573 
	C444.591766,338.954468 447.296356,338.896362 450.887146,339.015167 
	C453.592285,338.956055 456.297394,338.896912 459.877014,339.014740 
	C462.252228,338.956024 464.627411,338.897308 467.863953,339.019867 
	C469.911896,338.959869 471.959839,338.899841 474.908752,339.018341 
	C478.275116,338.958527 481.641479,338.898712 485.921844,339.015259 
	C490.283264,338.955750 494.644684,338.896210 499.916656,339.017090 
	C503.939972,338.948761 507.963257,338.880402 512.730225,338.711151 
	C512.934387,338.100159 513.316711,337.489227 513.317017,336.878143 
	C513.330322,312.912415 513.312561,288.946686 513.270752,264.980988 
	C513.269653,264.347687 512.956970,263.714905 512.940186,262.382019 
	C512.810120,261.929749 512.680054,261.477478 512.726257,260.208252 
	C511.431549,250.635376 509.006927,241.466461 503.134979,232.972260 
	C502.785522,232.585098 502.436096,232.197922 502.025116,231.154526 
	C500.984558,229.779953 499.944000,228.405380 498.781036,226.392624 
	C497.903992,225.455002 497.026947,224.517380 495.955383,222.965729 
	C493.894104,221.001892 491.832855,219.038055 489.541687,216.463943 
	C485.364838,213.648865 481.188019,210.833786 476.685822,207.498825 
	C476.323425,207.310181 475.961060,207.121536 475.679840,206.065308 
	C474.745514,191.013260 469.801025,177.558029 459.617065,165.529175 
	C458.750427,164.688034 457.883820,163.846893 456.826447,162.374268 
	C455.207916,160.942337 453.589355,159.510406 451.975098,158.014801 
	C451.975098,158.014801 451.913818,158.032867 451.650024,157.420166 
	C447.455597,154.603821 443.261139,151.787476 438.669800,148.405823 
	C432.811584,146.309845 426.953400,144.213867 420.570007,141.827621 
	C420.178223,141.826965 419.786438,141.826309 418.929199,141.397705 
	C418.323730,141.344437 417.718231,141.291168 416.385071,140.938919 
	C412.265259,140.977570 408.145447,141.016205 403.168152,140.878784 
	C400.847656,140.897873 398.527191,140.916977 395.646240,140.311661 
	C393.124268,140.304245 390.602264,140.296829 387.258331,140.056641 
	C385.847626,140.134155 384.436951,140.211670 382.122406,140.042923 
	C378.091156,140.122879 374.059875,140.202835 369.142273,140.046555 
	C366.099548,140.127594 363.056824,140.208633 359.148712,140.050049 
	C355.794342,140.167816 352.439972,140.285568 348.194946,140.229980 
	C345.107849,140.707138 342.020752,141.184311 338.106842,141.616959 
	C335.077301,142.477127 332.047791,143.337296 328.283936,144.180420 
	C324.402924,146.059265 320.521942,147.938110 315.979889,149.917984 
	C314.005615,151.316299 312.031342,152.714600 309.399902,154.247696 
	C307.266052,156.160843 305.132202,158.073990 302.361969,160.204727 
	C299.859497,163.283188 297.357025,166.361633 294.249298,169.777939 
	C293.474792,171.118851 292.700317,172.459763 291.436493,174.052399 
	C291.135803,174.697906 290.835114,175.343414 290.085876,176.331055 
	C290.014801,176.688889 289.943726,177.046722 289.292572,177.839615 
	C287.817719,181.142029 286.005371,184.337906 284.923950,187.764481 
	C278.874176,206.933502 279.802246,225.541351 289.983398,243.969330 
	C291.624664,246.412003 293.265930,248.854660 295.083374,251.932968 
	C297.679749,254.756821 300.276123,257.580688 303.131836,260.996948 
	C305.741119,263.041504 308.350433,265.086090 311.328064,267.693909 
	C313.563507,268.974701 315.798920,270.255463 318.365112,272.102844 
	C318.535492,272.239929 318.705841,272.377045 318.803925,273.219238 
	C319.759766,285.019226 322.854340,296.122345 329.835480,306.632172 
	C330.200806,306.828339 330.566132,307.024475 330.736938,307.144714 
M288.436401,257.920105 
	C285.956879,257.413605 283.477325,256.907074 280.176880,256.129272 
	C265.658691,256.503082 254.637848,267.597717 255.442764,281.028992 
	C256.276154,294.936096 267.267792,304.721954 281.800598,303.939453 
	C284.634979,303.007599 287.469330,302.075714 290.985229,301.080994 
	C299.744873,296.122131 304.138885,288.410645 303.462616,278.562622 
	C302.821106,269.221100 298.101898,262.065704 288.436401,257.920105 
M255.766205,409.657745 
	C257.418091,412.677032 259.736877,413.552856 262.790039,411.741272 
	C265.985321,409.845337 264.942047,407.233002 263.709808,404.797119 
	C261.880615,401.181061 261.676147,397.976074 263.629303,394.048828 
	C267.037903,387.195007 263.541351,379.009460 255.934784,376.878998 
	C250.818588,375.446014 245.136719,375.652344 239.739822,375.880341 
	C238.455490,375.934601 236.318924,378.969025 236.248291,380.700958 
	C235.889862,389.488098 236.101349,398.297729 236.071869,407.099365 
	C236.061890,410.080231 236.798737,412.465668 240.310562,412.628204 
	C244.049973,412.801270 245.092697,410.632904 245.108231,407.238831 
	C245.114792,405.806580 245.863159,403.332336 246.670044,403.157440 
	C248.604630,402.738098 251.175705,402.787048 252.729736,403.806152 
	C254.153030,404.739471 254.579971,407.192108 255.766205,409.657745 
M255.961624,303.956787 
	C248.821655,304.945160 244.218201,308.867004 242.506943,315.419312 
	C241.000854,321.185944 243.378754,327.543427 248.432297,331.261261 
	C253.239426,334.797821 260.125946,335.091248 265.361511,331.982666 
	C270.895264,328.697021 273.908875,321.795044 272.481323,315.702698 
	C270.792938,308.497345 264.036926,303.083344 255.961624,303.956787 
M560.646545,385.104675 
	C561.614685,383.759583 563.374451,382.399658 563.349609,381.073181 
	C563.318909,379.432495 562.179810,377.121033 560.825928,376.397797 
	C559.557617,375.720276 556.825073,376.117889 555.712036,377.122681 
	C552.139160,380.347900 549.017761,384.073303 544.725220,388.674286 
	C544.725220,384.893188 544.643860,382.749359 544.743896,380.614014 
	C544.901367,377.254395 543.219727,375.585052 540.020996,375.548676 
	C536.681580,375.510651 535.293762,377.555573 535.289124,380.697174 
	C535.275818,389.688690 535.307861,398.680328 535.268494,407.671661 
	C535.253784,411.027008 537.008423,412.569946 540.173096,412.637756 
	C543.653870,412.712341 544.779541,410.590332 544.729614,407.462372 
	C544.694214,405.243347 544.722717,403.023315 544.722717,399.478424 
	C549.192688,404.206879 552.351257,408.063263 556.105164,411.209198 
	C557.251770,412.170105 560.542419,411.863281 561.902039,410.855957 
	C562.921082,410.100922 562.703430,407.258331 562.476257,405.414154 
	C562.360840,404.476654 561.022583,403.678680 560.214661,402.839264 
	C552.019409,394.324860 552.018066,394.326141 560.646545,385.104675 
M465.991394,375.865082 
	C463.865234,377.325867 460.860107,378.311218 459.767578,380.331116 
	C455.422058,388.364777 451.747833,396.758514 447.663605,404.938263 
	C446.197205,407.875061 445.799103,410.320648 449.138214,412.067139 
	C452.751801,413.957214 455.086700,412.147949 456.052765,408.885834 
	C457.633850,403.547089 461.786499,404.997833 465.414124,404.753082 
	C469.141724,404.501587 472.436768,404.858307 473.723450,409.190033 
	C474.737701,412.604767 476.929138,413.673706 480.221680,412.135803 
	C483.774811,410.476257 483.226654,407.867218 481.855865,405.038422 
	C477.796021,396.660522 473.808624,388.246887 469.669189,379.908661 
	C468.965393,378.490967 467.650055,377.376862 465.991394,375.865082 
M346.993103,380.604645 
	C340.394318,373.685638 332.100006,375.338379 324.077972,376.375336 
	C323.006195,376.513885 321.505341,379.056702 321.465790,380.520233 
	C321.223328,389.495422 321.326630,398.480469 321.354095,407.462128 
	C321.363647,410.583466 322.768311,412.610382 326.107819,412.601105 
	C329.171082,412.592560 330.862427,410.729767 330.638733,407.836517 
	C330.300446,403.460754 332.385681,402.798553 336.229065,402.602875 
	C347.977722,402.004639 353.508820,391.212646 346.993103,380.604645 
M215.978455,401.815460 
	C214.246597,402.349823 212.543961,403.185852 210.776917,403.357086 
	C206.833282,403.739227 202.776749,402.598938 201.814728,398.663086 
	C200.999634,395.328369 201.273499,390.921234 202.894699,388.005920 
	C204.823883,384.536774 209.225601,384.079651 213.238831,385.145966 
	C214.182190,385.396606 215.179230,386.567108 215.887878,386.369354 
	C218.037369,385.769562 220.491089,385.121948 221.923065,383.627502 
	C222.528473,382.995667 221.430054,379.472076 220.161209,378.513336 
	C213.271042,373.306885 201.562546,374.915436 195.534027,381.531067 
	C189.763535,387.863586 189.550903,399.201660 195.074722,406.025757 
	C200.615311,412.870636 211.975098,415.177246 219.067307,410.584412 
	C220.611862,409.584137 222.392899,407.252136 222.242767,405.710999 
	C221.987534,403.090973 220.228424,400.690704 215.978455,401.815460 
M291.682983,387.873291 
	C289.447662,384.582947 287.288208,381.237732 284.956635,378.017090 
	C282.413666,374.504425 279.171570,374.309784 276.964447,377.927582 
	C276.167023,379.234650 276.597656,382.030762 277.504303,383.513794 
	C282.282013,391.328857 289.400238,398.015717 287.596863,408.626556 
	C287.111908,411.480103 289.594391,412.904938 292.627441,412.700592 
	C295.864136,412.482513 297.211731,410.455872 296.780090,407.667053 
	C295.655640,400.401855 298.889801,394.801575 303.040741,389.422882 
	C304.055756,388.107635 304.957397,386.697266 305.827057,385.279083 
	C307.571106,382.434906 310.928833,379.580811 306.261658,376.473999 
	C301.349976,373.204376 300.032104,377.606598 297.982025,380.460175 
	C296.163818,382.990997 294.272766,385.469513 291.682983,387.873291 
M374.580872,411.736938 
	C380.020142,413.478333 381.838898,412.381866 381.978058,407.075165 
	C382.091248,402.760895 381.913757,398.438568 382.044281,394.125244 
	C382.143097,390.858917 381.644196,387.088348 383.127869,384.542572 
	C383.945618,383.139404 388.305267,383.806458 391.066467,383.524078 
	C391.558899,383.473724 392.228516,383.515045 392.498566,383.221588 
	C393.541473,382.088348 395.310364,380.754608 395.204346,379.649536 
	C395.067810,378.226318 393.426910,375.821869 392.371124,375.787811 
	C382.598053,375.472687 372.809052,375.478516 363.032379,375.712128 
	C362.046326,375.735626 360.424255,377.825867 360.341309,379.041809 
	C360.255157,380.304932 361.392487,382.086639 362.527344,382.872833 
	C363.613770,383.625580 365.428162,383.720062 366.846191,383.530914 
	C371.890228,382.858124 373.486572,384.801697 373.312439,389.897949 
	C373.070953,396.963287 373.749603,404.060059 374.580872,411.736938 
M416.498230,383.604980 
	C419.878174,383.369598 420.155518,385.540955 420.134674,388.122253 
	C420.082275,394.600891 420.144440,401.080353 420.121735,407.559357 
	C420.111786,410.403564 420.978912,412.515137 424.222015,412.651978 
	C427.665527,412.797302 428.934113,410.796387 428.936951,407.644897 
	C428.941620,402.494873 428.956726,397.344879 428.959656,392.194855 
	C428.964142,384.330933 428.961639,384.333679 436.974274,383.544922 
	C437.633270,383.480072 438.523224,383.576233 438.895874,383.195892 
	C440.030579,382.037720 441.766571,380.674713 441.753876,379.406616 
	C441.740906,378.104736 439.975006,375.730316 438.920593,375.699005 
	C429.303589,375.413452 419.670837,375.419342 410.054047,375.712799 
	C409.025574,375.744232 407.294495,378.154205 407.300293,379.454468 
	C407.306030,380.727539 408.874512,382.524292 410.195740,383.122589 
	C411.746704,383.824982 413.770630,383.482849 416.498230,383.604980 
M496.015106,405.256287 
	C496.066803,408.560272 495.420471,412.459198 500.393646,412.630524 
	C506.374481,412.836548 512.387146,412.943451 518.341431,412.497986 
	C519.787720,412.389801 521.059509,409.950897 522.411560,408.583710 
	C520.954224,407.397736 519.642090,405.527374 518.006714,405.180237 
	C515.299561,404.605652 512.375610,404.871368 509.558533,405.041443 
	C506.062378,405.252472 504.840393,403.715698 504.917480,400.325378 
	C505.064972,393.841675 504.873749,387.350708 504.983063,380.865479 
	C505.037567,377.632050 503.791412,375.619171 500.483582,375.608307 
	C497.153564,375.597351 495.948639,377.639984 495.988708,380.859985 
	C496.086029,388.676636 496.016632,396.495300 496.015106,405.256287 
z"/>
<path fill="#D1D1D1" opacity="0.000000" stroke="none"
	d="
M753.896545,2.108879 
	C751.898438,2.072479 749.900269,2.004233 747.902161,2.004194 
	C499.241241,1.999434 250.580322,1.999701 1.459705,1.999855 
	C1.166667,1.666667 1.315919,1.056198 1.502793,1.044456 
	C2.830883,0.961004 4.166667,1.000000 5.500000,1.000000 
	C255.333328,1.000000 505.166656,1.000000 754.721497,1.500704 
	C754.260803,2.037231 754.078674,2.073055 753.896545,2.108879 
z"/>
<path fill="#747474" opacity="1.000000" stroke="none" 
	d="
M753.941223,2.559593 
	C754.078674,2.073055 754.260803,2.037231 754.721497,2.000704 
	C755.000000,202.666672 755.000000,403.333344 754.500000,604.000000 
	C753.995300,403.670105 753.990601,203.340210 753.941223,2.559593 
z"/>
<path fill="#3E018D" opacity="1.000000" stroke="none" 
	d="
M318.876221,272.514191 
	C318.705841,272.377045 318.535492,272.239929 318.251404,271.328583 
	C319.072113,264.023926 320.006500,257.493561 321.173584,250.695190 
	C324.640808,243.300842 327.875336,236.174484 331.388031,228.870804 
	C334.396881,225.377609 337.127563,222.061737 340.169159,218.635056 
	C343.322784,216.002777 346.165497,213.481277 349.358521,210.931519 
	C353.586487,208.661728 357.464142,206.420181 361.719055,204.172241 
	C364.727844,203.317505 367.359375,202.469177 370.371033,201.645966 
	C374.178253,200.803818 377.605316,199.936539 381.359375,199.088745 
	C382.120148,199.063263 382.553955,199.018295 383.456055,199.019012 
	C398.949646,198.990097 413.975006,198.915497 429.467194,198.881165 
	C436.621552,198.954941 443.309052,198.988449 450.385437,199.077881 
	C452.859375,199.425781 454.944458,199.717743 457.362000,200.167007 
	C463.659607,202.540344 469.624786,204.756363 475.541565,207.443954 
	C475.077026,213.928711 474.660950,219.941895 474.119934,226.232681 
	C473.965851,226.911819 473.936676,227.313354 473.677948,228.001953 
	C471.009735,234.208389 468.571075,240.127747 465.858582,246.246460 
	C463.073242,249.986359 460.561676,253.526917 457.752380,257.212921 
	C454.648682,260.034363 451.842712,262.710358 448.729065,265.465942 
	C445.948242,267.379852 443.475159,269.214142 440.648743,271.074554 
	C437.471588,272.565430 434.647736,274.030212 431.441711,275.566162 
	C428.372772,276.470062 425.686066,277.302734 422.597839,278.126953 
	C418.795349,278.759766 415.394348,279.401001 411.537140,279.991516 
	C407.710571,280.024567 404.340210,280.108337 400.527100,280.122040 
	C397.384735,280.099060 394.685028,280.146179 391.535278,280.130798 
	C388.038727,280.115417 384.992249,280.162476 381.493744,280.150085 
	C377.686401,280.138855 374.331085,280.187103 370.523254,280.163208 
	C366.700531,280.143066 363.330322,280.195068 359.512085,280.175598 
	C356.024231,280.158875 352.984406,280.213654 349.582947,280.356049 
	C346.477020,280.346130 343.732819,280.248596 340.608337,280.092285 
	C337.822174,279.366394 335.416260,278.699219 333.010437,278.003601 
	C333.010590,277.975128 332.953949,277.980835 332.864075,277.829834 
	C332.611023,277.485901 332.403625,277.400757 331.786316,277.317078 
	C330.918823,277.136322 330.417023,277.061829 329.833191,276.850464 
	C329.605072,276.535095 329.417603,276.460327 328.830750,276.345673 
	C325.273865,274.972778 322.075043,273.743469 318.876221,272.514191 
z"/>
<path fill="#0098EA" opacity="1.000000" stroke="none" 
	d="
M499.006104,338.836670 
	C494.644684,338.896210 490.283264,338.955750 485.464417,338.469025 
	C485.004333,322.383698 485.000671,306.844635 484.999329,291.305542 
	C484.997986,275.356537 484.997559,259.407532 484.999359,243.458511 
	C485.000153,236.646973 484.867157,229.831085 485.078583,223.025970 
	C485.167847,220.151886 485.173401,216.648239 489.771576,217.074234 
	C491.832855,219.038055 493.894104,221.001892 496.047791,223.633240 
	C497.061279,225.210770 497.982330,226.120789 498.903412,227.030807 
	C499.944000,228.405380 500.984558,229.779953 501.882233,231.817230 
	C500.826233,235.564178 499.137726,238.643829 499.119446,241.733353 
	C498.928040,274.100220 499.004059,306.468658 499.006104,338.836670 
z"/>
<path fill="#0190E3" opacity="1.000000" stroke="none" 
	d="
M489.656616,216.769089 
	C485.173401,216.648239 485.167847,220.151886 485.078583,223.025970 
	C484.867157,229.831085 485.000153,236.646973 484.999359,243.458511 
	C484.997559,259.407532 484.997986,275.356537 484.999329,291.305542 
	C485.000671,306.844635 485.004333,322.383698 485.007416,338.380829 
	C481.641479,338.898712 478.275116,338.958527 474.456757,338.471039 
	C473.972351,301.187469 473.939941,264.451172 473.907501,227.714905 
	C473.936676,227.313354 473.965851,226.911819 474.357117,225.959778 
	C475.483185,219.612427 476.247192,213.815582 477.011169,208.018723 
	C481.188019,210.833786 485.364838,213.648865 489.656616,216.769089 
z"/>
<path fill="#00A0F0" opacity="1.000000" stroke="none" 
	d="
M499.461365,338.926880 
	C499.004059,306.468658 498.928040,274.100220 499.119446,241.733353 
	C499.137726,238.643829 500.826233,235.564178 501.912994,232.145355 
	C502.436096,232.197922 502.785522,232.585098 503.139069,233.637497 
	C505.669250,241.448395 508.197601,248.593277 510.719788,255.740311 
	C511.340179,257.498291 511.940491,259.263367 512.549988,261.025208 
	C512.680054,261.477478 512.810120,261.929749 512.637756,263.067993 
	C512.220215,265.563263 512.006775,267.372406 512.004883,269.181763 
	C511.981171,292.391846 511.987701,315.601959 511.986572,338.812042 
	C507.963257,338.880402 503.939972,338.948761 499.461365,338.926880 
z"/>
<path fill="#0190E3" opacity="1.000000" stroke="none" 
	d="
M281.028595,303.808167 
	C267.267792,304.721954 256.276154,294.936096 255.442764,281.028992 
	C254.637848,267.597717 265.658691,256.503082 280.587189,256.706818 
	C281.007874,272.792297 281.018250,288.300232 281.028595,303.808167 
z"/>
<path fill="#3C7CD5" opacity="1.000000" stroke="none" 
	d="
M331.109863,229.048111 
	C327.875336,236.174484 324.640808,243.300842 320.933655,250.398468 
	C319.974396,245.935562 319.088043,241.503311 319.066620,237.066895 
	C318.935699,209.922821 319.049103,182.777527 318.899078,155.633636 
	C318.888306,153.690659 317.427490,151.755676 316.640930,149.816956 
	C320.521942,147.938110 324.402924,146.059265 328.644897,144.644119 
	C329.004303,171.032578 328.955017,196.957581 329.092377,222.881592 
	C329.103302,224.940613 330.406982,226.992767 331.109863,229.048111 
z"/>
<path fill="#3381D9" opacity="1.000000" stroke="none" 
	d="
M316.310425,149.867477 
	C317.427490,151.755676 318.888306,153.690659 318.899078,155.633636 
	C319.049103,182.777527 318.935699,209.922821 319.066620,237.066895 
	C319.088043,241.503311 319.974396,245.935562 320.700958,250.666443 
	C320.006500,257.493561 319.072113,264.023926 318.086060,271.045288 
	C315.798920,270.255463 313.563507,268.974701 311.153625,266.934753 
	C310.986145,230.764587 311.007965,195.353561 310.959747,159.942627 
	C310.957092,157.998978 310.371368,156.056137 310.057068,154.112915 
	C312.031342,152.714600 314.005615,151.316299 316.310425,149.867477 
z"/>
<path fill="#4776D2" opacity="1.000000" stroke="none" 
	d="
M331.388062,228.870804 
	C330.406982,226.992767 329.103302,224.940613 329.092377,222.881592 
	C328.955017,196.957581 329.004303,171.032578 329.012054,144.652649 
	C332.047791,143.337296 335.077301,142.477127 338.535156,142.133026 
	C338.975739,165.900757 338.966064,189.152481 339.037567,212.403961 
	C339.044067,214.518753 339.572296,216.631927 339.858276,218.745850 
	C337.127563,222.061737 334.396881,225.377609 331.388062,228.870804 
z"/>
<path fill="#390083" opacity="1.000000" stroke="none" 
	d="
M255.606079,409.316528 
	C254.579971,407.192108 254.153030,404.739471 252.729736,403.806152 
	C251.175705,402.787048 248.604630,402.738098 246.670044,403.157440 
	C245.863159,403.332336 245.114792,405.806580 245.108231,407.238831 
	C245.092697,410.632904 244.049973,412.801270 240.310562,412.628204 
	C236.798737,412.465668 236.061890,410.080231 236.071869,407.099365 
	C236.101349,398.297729 235.889862,389.488098 236.248291,380.700958 
	C236.318924,378.969025 238.455490,375.934601 239.739822,375.880341 
	C245.136719,375.652344 250.818588,375.446014 255.934784,376.878998 
	C263.541351,379.009460 267.037903,387.195007 263.629303,394.048828 
	C261.676147,397.976074 261.880615,401.181061 263.709808,404.797119 
	C264.942047,407.233002 265.985321,409.845337 262.790039,411.741272 
	C259.736877,413.552856 257.418091,412.677032 255.606079,409.316528 
M245.275681,385.242676 
	C245.501266,387.830231 245.726868,390.417755 246.690643,393.202606 
	C247.830704,393.351685 249.255432,394.003937 250.055191,393.551483 
	C252.104187,392.392303 255.074036,391.022247 255.493973,389.226349 
	C256.240173,386.035400 253.322845,384.899017 250.387589,384.843140 
	C248.912735,384.815033 247.434723,384.952545 245.275681,385.242676 
z"/>
<path fill="#0098EA" opacity="1.000000" stroke="none" 
	d="
M256.346893,303.923248 
	C264.036926,303.083344 270.792938,308.497345 272.481323,315.702698 
	C273.908875,321.795044 270.895264,328.697021 265.361511,331.982666 
	C260.125946,335.091248 253.239426,334.797821 248.432297,331.261261 
	C243.378754,327.543427 241.000854,321.185944 242.506943,315.419312 
	C244.218201,308.867004 248.821655,304.945160 256.346893,303.923248 
z"/>
<path fill="#2A85DB" opacity="1.000000" stroke="none" 
	d="
M309.728485,154.180298 
	C310.371368,156.056137 310.957092,157.998978 310.959747,159.942627 
	C311.007965,195.353561 310.986145,230.764587 310.969482,266.653137 
	C308.350433,265.086090 305.741119,263.041504 303.085602,260.260010 
	C303.359955,256.903320 303.951996,254.284256 303.959076,251.663635 
	C304.028748,225.889938 304.051575,200.115799 303.955963,174.342270 
	C303.938202,169.556107 303.332611,164.772110 302.998322,159.987122 
	C305.132202,158.073990 307.266052,156.160843 309.728485,154.180298 
z"/>
<path fill="#390083" opacity="1.000000" stroke="none" 
	d="
M560.423828,385.385376 
	C552.018066,394.326141 552.019409,394.324860 560.214661,402.839264 
	C561.022583,403.678680 562.360840,404.476654 562.476257,405.414154 
	C562.703430,407.258331 562.921082,410.100922 561.902039,410.855957 
	C560.542419,411.863281 557.251770,412.170105 556.105164,411.209198 
	C552.351257,408.063263 549.192688,404.206879 544.722717,399.478424 
	C544.722717,403.023315 544.694214,405.243347 544.729614,407.462372 
	C544.779541,410.590332 543.653870,412.712341 540.173096,412.637756 
	C537.008423,412.569946 535.253784,411.027008 535.268494,407.671661 
	C535.307861,398.680328 535.275818,389.688690 535.289124,380.697174 
	C535.293762,377.555573 536.681580,375.510651 540.020996,375.548676 
	C543.219727,375.585052 544.901367,377.254395 544.743896,380.614014 
	C544.643860,382.749359 544.725220,384.893188 544.725220,388.674286 
	C549.017761,384.073303 552.139160,380.347900 555.712036,377.122681 
	C556.825073,376.117889 559.557617,375.720276 560.825928,376.397797 
	C562.179810,377.121033 563.318909,379.432495 563.349609,381.073181 
	C563.374451,382.399658 561.614685,383.759583 560.423828,385.385376 
z"/>
<path fill="#2387DE" opacity="1.000000" stroke="none" 
	d="
M302.680145,160.095917 
	C303.332611,164.772110 303.938202,169.556107 303.955963,174.342270 
	C304.051575,200.115799 304.028748,225.889938 303.959076,251.663635 
	C303.951996,254.284256 303.359955,256.903320 302.955933,259.963806 
	C300.276123,257.580688 297.679749,254.756821 295.076355,251.181900 
	C295.381165,247.978241 295.955475,245.526505 295.963623,243.072906 
	C296.034851,221.639633 296.051025,200.205795 295.953644,178.772720 
	C295.939514,175.660233 295.237976,172.550888 294.854553,169.440094 
	C297.357025,166.361633 299.859497,163.283188 302.680145,160.095917 
z"/>
<path fill="#4F71CE" opacity="1.000000" stroke="none" 
	d="
M340.169189,218.635071 
	C339.572296,216.631927 339.044067,214.518753 339.037567,212.403961 
	C338.966064,189.152481 338.975739,165.900757 338.948547,142.155289 
	C342.020752,141.184311 345.107849,140.707138 348.614014,140.834717 
	C349.024780,164.612885 349.016479,187.786331 349.008179,210.959778 
	C346.165497,213.481277 343.322784,216.002777 340.169189,218.635071 
z"/>
<path fill="#7E52BA" opacity="1.000000" stroke="none" 
	d="
M396.206696,140.936081 
	C398.527191,140.916977 400.847656,140.897873 403.588501,141.431686 
	C404.004059,160.649826 403.999237,179.315063 403.531982,197.990479 
	C399.048370,197.990570 395.027191,197.980499 391.004547,197.503632 
	C391.002106,180.994949 390.956451,164.952820 391.045074,148.911438 
	C391.059479,146.305267 391.668610,143.702393 392.422180,141.069641 
	C393.963226,141.006226 395.084961,140.971146 396.206696,140.936081 
z"/>
<path fill="#168AE0" opacity="1.000000" stroke="none" 
	d="
M473.677948,228.001953 
	C473.939941,264.451172 473.972351,301.187469 474.006287,338.381775 
	C471.959839,338.899841 469.911896,338.959869 467.432831,338.471252 
	C467.001129,309.222107 467.017181,280.521515 466.962738,251.821060 
	C466.959076,249.895889 466.421631,247.971741 466.132446,246.047119 
	C468.571075,240.127747 471.009735,234.208389 473.677948,228.001953 
z"/>
<path fill="#390083" opacity="1.000000" stroke="none" 
	d="
M466.304321,375.993774 
	C467.650055,377.376862 468.965393,378.490967 469.669189,379.908661 
	C473.808624,388.246887 477.796021,396.660522 481.855865,405.038422 
	C483.226654,407.867218 483.774811,410.476257 480.221680,412.135803 
	C476.929138,413.673706 474.737701,412.604767 473.723450,409.190033 
	C472.436768,404.858307 469.141724,404.501587 465.414124,404.753082 
	C461.786499,404.997833 457.633850,403.547089 456.052765,408.885834 
	C455.086700,412.147949 452.751801,413.957214 449.138214,412.067139 
	C445.799103,410.320648 446.197205,407.875061 447.663605,404.938263 
	C451.747833,396.758514 455.422058,388.364777 459.767578,380.331116 
	C460.860107,378.311218 463.865234,377.325867 466.304321,375.993774 
M466.543243,397.459839 
	C466.399445,395.451263 466.255615,393.442719 466.111786,391.434143 
	C465.448700,391.395966 464.785583,391.357758 464.122498,391.319580 
	C463.459930,392.995087 462.797363,394.670624 462.134796,396.346130 
	C463.377045,396.789551 464.619293,397.232971 466.543243,397.459839 
z"/>
<path fill="#2387DE" opacity="1.000000" stroke="none" 
	d="
M465.858612,246.246460 
	C466.421631,247.971741 466.959076,249.895889 466.962738,251.821060 
	C467.017181,280.521515 467.001129,309.222107 467.002167,338.380615 
	C464.627411,338.897308 462.252228,338.956024 459.439636,338.468384 
	C459.001099,313.238464 459.024689,288.554901 458.957550,263.871552 
	C458.951385,261.602722 458.366333,259.335449 458.050110,257.067474 
	C460.561676,253.526917 463.073242,249.986359 465.858612,246.246460 
z"/>
<path fill="#3381D9" opacity="1.000000" stroke="none" 
	d="
M457.752380,257.212921 
	C458.366333,259.335449 458.951385,261.602722 458.957550,263.871552 
	C459.024689,288.554901 459.001099,313.238464 459.002380,338.379883 
	C456.297394,338.896912 453.592285,338.956055 450.444275,338.468811 
	C450.000519,317.687378 450.050079,297.452057 449.955292,277.217407 
	C449.936798,273.272369 449.357391,269.329956 449.036743,265.386353 
	C451.842712,262.710358 454.648682,260.034363 457.752380,257.212921 
z"/>
<path fill="#390083" opacity="1.000000" stroke="none" 
	d="
M347.240875,380.889954 
	C353.508820,391.212646 347.977722,402.004639 336.229065,402.602875 
	C332.385681,402.798553 330.300446,403.460754 330.638733,407.836517 
	C330.862427,410.729767 329.171082,412.592560 326.107819,412.601105 
	C322.768311,412.610382 321.363647,410.583466 321.354095,407.462128 
	C321.326630,398.480469 321.223328,389.495422 321.465790,380.520233 
	C321.505341,379.056702 323.006195,376.513885 324.077972,376.375336 
	C332.100006,375.338379 340.394318,373.685638 347.240875,380.889954 
M339.144867,392.716370 
	C339.421814,390.518677 340.568359,386.848602 339.811340,386.401489 
	C337.609833,385.101166 334.634216,384.742279 331.989532,384.830688 
	C331.358246,384.851776 330.279816,388.079834 330.357727,389.789581 
	C330.654785,396.310120 335.285706,393.055603 339.144867,392.716370 
z"/>
<path fill="#6166C6" opacity="1.000000" stroke="none" 
	d="
M369.990936,201.620850 
	C367.359375,202.469177 364.727844,203.317505 361.350952,203.951569 
	C360.070862,201.758087 359.086426,199.782150 359.071899,197.799149 
	C358.948486,180.904312 358.963409,164.008026 359.046234,147.112686 
	C359.057404,144.836838 359.676483,142.563934 360.014099,140.289673 
	C363.056824,140.208633 366.099548,140.127594 369.574860,140.613373 
	C370.001953,161.327072 369.996429,181.473969 369.990936,201.620850 
z"/>
<path fill="#5A6BCA" opacity="1.000000" stroke="none" 
	d="
M359.581421,140.169861 
	C359.676483,142.563934 359.057404,144.836838 359.046234,147.112686 
	C358.963409,164.008026 358.948486,180.904312 359.071899,197.799149 
	C359.086426,199.782150 360.070862,201.758087 360.973755,203.957977 
	C357.464142,206.420181 353.586487,208.661728 349.358521,210.931519 
	C349.016479,187.786331 349.024780,164.612885 349.059326,140.921387 
	C352.439972,140.285568 355.794342,140.167816 359.581421,140.169861 
z"/>
<path fill="#8849B5" opacity="1.000000" stroke="none" 
	d="
M403.994446,197.980286 
	C403.999237,179.315063 404.004059,160.649826 404.017273,141.519714 
	C408.145447,141.016205 412.265259,140.977570 416.735779,141.267822 
	C417.086517,141.596710 417.116180,141.955551 416.925812,142.333176 
	C416.489899,144.668457 416.038361,146.625381 416.031250,148.583908 
	C415.971497,165.055908 415.993073,181.528229 415.530640,198.010315 
	C411.378876,198.006897 407.686646,197.993591 403.994446,197.980286 
z"/>
<path fill="#390083" opacity="1.000000" stroke="none" 
	d="
M216.340103,401.669128 
	C220.228424,400.690704 221.987534,403.090973 222.242767,405.710999 
	C222.392899,407.252136 220.611862,409.584137 219.067307,410.584412 
	C211.975098,415.177246 200.615311,412.870636 195.074722,406.025757 
	C189.550903,399.201660 189.763535,387.863586 195.534027,381.531067 
	C201.562546,374.915436 213.271042,373.306885 220.161209,378.513336 
	C221.430054,379.472076 222.528473,382.995667 221.923065,383.627502 
	C220.491089,385.121948 218.037369,385.769562 215.887878,386.369354 
	C215.179230,386.567108 214.182190,385.396606 213.238831,385.145966 
	C209.225601,384.079651 204.823883,384.536774 202.894699,388.005920 
	C201.273499,390.921234 200.999634,395.328369 201.814728,398.663086 
	C202.776749,402.598938 206.833282,403.739227 210.776917,403.357086 
	C212.543961,403.185852 214.246597,402.349823 216.340103,401.669128 
z"/>
<path fill="#5A6BCA" opacity="1.000000" stroke="none" 
	d="
M411.993317,280.042236 
	C415.394348,279.401001 418.795349,278.759766 422.598877,278.583038 
	C423.001312,298.977478 423.001251,318.907379 423.001221,338.837311 
	C419.636749,338.895355 416.272308,338.953400 412.456360,338.465668 
	C412.001007,318.627350 411.997162,299.334808 411.993317,280.042236 
z"/>
<path fill="#6166C6" opacity="1.000000" stroke="none" 
	d="
M411.537140,279.991516 
	C411.997162,299.334808 412.001007,318.627350 412.005707,338.377502 
	C408.640228,338.893311 405.273926,338.951569 401.456085,338.465179 
	C400.992981,318.677734 400.981415,299.434906 400.969849,280.192108 
	C404.340210,280.108337 407.710571,280.024567 411.537140,279.991516 
z"/>
<path fill="#8849B5" opacity="1.000000" stroke="none" 
	d="
M370.975739,280.235352 
	C374.331085,280.187103 377.686401,280.138855 381.509918,280.598785 
	C381.807922,299.480011 381.620453,317.852936 381.524506,336.226379 
	C381.520203,337.048279 382.347198,337.874481 382.786987,338.698730 
	C377.382172,337.623688 371.977325,336.548645 366.703674,335.229309 
	C371.135406,335.177124 371.011353,332.206543 371.006531,329.234985 
	C370.979980,312.901794 370.982941,296.568573 370.975739,280.235352 
z"/>
<path fill="#3C7CD5" opacity="1.000000" stroke="none" 
	d="
M448.729004,265.465942 
	C449.357391,269.329956 449.936798,273.272369 449.955292,277.217407 
	C450.050079,297.452057 450.000519,317.687378 450.001160,338.380371 
	C447.296356,338.896362 444.591766,338.954468 441.444336,338.466064 
	C441.001678,315.629181 441.001892,293.338806 441.002075,271.048431 
	C443.475159,269.214142 445.948242,267.379852 448.729004,265.465942 
z"/>
<path fill="#745ABF" opacity="1.000000" stroke="none" 
	d="
M392.002869,141.097992 
	C391.668610,143.702393 391.059479,146.305267 391.045074,148.911438 
	C390.956451,164.952820 391.002106,180.994949 390.576660,197.512878 
	C387.762756,198.317078 385.375275,198.645203 382.987793,198.973328 
	C382.553955,199.018295 382.120148,199.063263 381.282440,198.670868 
	C380.585724,195.953659 380.052399,193.675171 380.039429,191.393753 
	C379.960541,177.490540 379.818817,163.582474 380.137787,149.686127 
	C380.210175,146.533386 382.017487,143.420456 383.026245,140.289185 
	C384.436951,140.211670 385.847626,140.134155 387.951141,140.357117 
	C389.763580,140.804398 390.883240,140.951187 392.002869,141.097992 
z"/>
<path fill="#6A5EC0" opacity="1.000000" stroke="none" 
	d="
M382.574341,140.166061 
	C382.017487,143.420456 380.210175,146.533386 380.137787,149.686127 
	C379.818817,163.582474 379.960541,177.490540 380.039429,191.393753 
	C380.052399,193.675171 380.585724,195.953659 380.955505,198.651367 
	C377.605316,199.936539 374.178253,200.803818 370.371033,201.645966 
	C369.996429,181.473969 370.001953,161.327072 370.018036,140.731491 
	C374.059875,140.202835 378.091156,140.122879 382.574341,140.166061 
z"/>
<path fill="#9738AC" opacity="1.000000" stroke="none" 
	d="
M449.996552,199.021957 
	C443.309052,198.988449 436.621552,198.954941 429.210968,198.692535 
	C427.649902,198.316452 426.811890,198.169250 425.979797,197.552063 
	C425.989624,181.865982 425.811096,166.646301 426.111542,151.436081 
	C426.198792,147.019592 425.480621,143.775360 421.095184,142.117889 
	C426.953400,144.213867 432.811584,146.309845 438.663879,149.020752 
	C438.105072,151.647385 437.105530,153.652161 437.074249,155.671906 
	C436.912689,166.108139 436.998871,176.548218 436.998810,186.986954 
	C436.998749,198.045181 436.998810,198.045181 448.309143,198.016907 
	C449.063110,198.382935 449.529846,198.702438 449.996552,199.021957 
z"/>
<path fill="#8E43B2" opacity="1.000000" stroke="none" 
	d="
M370.523254,280.163208 
	C370.982941,296.568573 370.979980,312.901794 371.006531,329.234985 
	C371.011353,332.206543 371.135406,335.177124 366.427917,334.988342 
	C363.136108,333.834747 360.251190,332.677826 357.525848,331.240326 
	C358.456726,329.385712 359.881927,327.818359 359.898010,326.236633 
	C360.053833,310.908142 359.973236,295.577240 359.960144,280.247070 
	C363.330322,280.195068 366.700531,280.143066 370.523254,280.163208 
z"/>
<path fill="#4776D2" opacity="1.000000" stroke="none" 
	d="
M440.648743,271.074554 
	C441.001892,293.338806 441.001678,315.629181 441.001404,338.377197 
	C438.297180,338.894073 435.593048,338.953369 432.445801,338.467102 
	C431.943054,317.112671 431.883484,296.303802 431.823914,275.494965 
	C434.647736,274.030212 437.471588,272.565430 440.648743,271.074554 
z"/>
<path fill="#7955BC" opacity="1.000000" stroke="none" 
	d="
M383.246368,338.810547 
	C382.347198,337.874481 381.520203,337.048279 381.524506,336.226379 
	C381.620453,317.852936 381.807922,299.480011 381.961914,280.658264 
	C384.992249,280.162476 388.038727,280.115417 391.539978,280.581146 
	C391.995636,300.342407 391.996582,319.590851 391.997498,338.839325 
	C389.233582,338.867035 386.469666,338.894714 383.246368,338.810547 
z"/>
<path fill="#390083" opacity="1.000000" stroke="none" 
	d="
M292.048431,387.922211 
	C294.272766,385.469513 296.163818,382.990997 297.982025,380.460175 
	C300.032104,377.606598 301.349976,373.204376 306.261658,376.473999 
	C310.928833,379.580811 307.571106,382.434906 305.827057,385.279083 
	C304.957397,386.697266 304.055756,388.107635 303.040741,389.422882 
	C298.889801,394.801575 295.655640,400.401855 296.780090,407.667053 
	C297.211731,410.455872 295.864136,412.482513 292.627441,412.700592 
	C289.594391,412.904938 287.111908,411.480103 287.596863,408.626556 
	C289.400238,398.015717 282.282013,391.328857 277.504303,383.513794 
	C276.597656,382.030762 276.167023,379.234650 276.964447,377.927582 
	C279.171570,374.309784 282.413666,374.504425 284.956635,378.017090 
	C287.288208,381.237732 289.447662,384.582947 292.048431,387.922211 
z"/>
<path fill="#390083" opacity="1.000000" stroke="none" 
	d="
M374.307587,411.440155 
	C373.749603,404.060059 373.070953,396.963287 373.312439,389.897949 
	C373.486572,384.801697 371.890228,382.858124 366.846191,383.530914 
	C365.428162,383.720062 363.613770,383.625580 362.527344,382.872833 
	C361.392487,382.086639 360.255157,380.304932 360.341309,379.041809 
	C360.424255,377.825867 362.046326,375.735626 363.032379,375.712128 
	C372.809052,375.478516 382.598053,375.472687 392.371124,375.787811 
	C393.426910,375.821869 395.067810,378.226318 395.204346,379.649536 
	C395.310364,380.754608 393.541473,382.088348 392.498566,383.221588 
	C392.228516,383.515045 391.558899,383.473724 391.066467,383.524078 
	C388.305267,383.806458 383.945618,383.139404 383.127869,384.542572 
	C381.644196,387.088348 382.143097,390.858917 382.044281,394.125244 
	C381.913757,398.438568 382.091248,402.760895 381.978058,407.075165 
	C381.838898,412.381866 380.020142,413.478333 374.307587,411.440155 
z"/>
<path fill="#390083" opacity="1.000000" stroke="none" 
	d="
M416.043823,383.599365 
	C413.770630,383.482849 411.746704,383.824982 410.195740,383.122589 
	C408.874512,382.524292 407.306030,380.727539 407.300293,379.454468 
	C407.294495,378.154205 409.025574,375.744232 410.054047,375.712799 
	C419.670837,375.419342 429.303589,375.413452 438.920593,375.699005 
	C439.975006,375.730316 441.740906,378.104736 441.753876,379.406616 
	C441.766571,380.674713 440.030579,382.037720 438.895874,383.195892 
	C438.523224,383.576233 437.633270,383.480072 436.974274,383.544922 
	C428.961639,384.333679 428.964142,384.330933 428.959656,392.194855 
	C428.956726,397.344879 428.941620,402.494873 428.936951,407.644897 
	C428.934113,410.796387 427.665527,412.797302 424.222015,412.651978 
	C420.978912,412.515137 420.111786,410.403564 420.121735,407.559357 
	C420.144440,401.080353 420.082275,394.600891 420.134674,388.122253 
	C420.155518,385.540955 419.878174,383.369598 416.043823,383.599365 
z"/>
<path fill="#4F71CE" opacity="1.000000" stroke="none" 
	d="
M431.441711,275.566162 
	C431.883484,296.303802 431.943054,317.112671 432.002808,338.379272 
	C429.297821,338.896027 426.592651,338.955048 423.444366,338.925720 
	C423.001251,318.907379 423.001312,298.977478 423.000366,278.591492 
	C425.686066,277.302734 428.372772,276.470062 431.441711,275.566162 
z"/>
<path fill="#8E43B2" opacity="1.000000" stroke="none" 
	d="
M420.832581,141.972748 
	C425.480621,143.775360 426.198792,147.019592 426.111542,151.436081 
	C425.811096,166.646301 425.989624,181.865982 425.528656,197.563522 
	C422.044495,198.030136 419.017365,198.015289 415.990234,198.000443 
	C415.993073,181.528229 415.971497,165.055908 416.031250,148.583908 
	C416.038361,146.625381 416.489899,144.668457 417.304199,142.327576 
	C418.380157,141.904800 418.887421,141.865219 419.394653,141.825638 
	C419.786438,141.826309 420.178223,141.826965 420.832581,141.972748 
z"/>
<path fill="#745ABF" opacity="1.000000" stroke="none" 
	d="
M392.441223,338.926514 
	C391.996582,319.590851 391.995636,300.342407 391.990051,280.643616 
	C394.685028,280.146179 397.384735,280.099060 400.527130,280.122040 
	C400.981415,299.434906 400.992981,318.677734 401.005249,338.378113 
	C398.298920,338.895050 395.591949,338.954376 392.441223,338.926514 
z"/>
<path fill="#A12DA7" opacity="1.000000" stroke="none" 
	d="
M448.021912,197.970367 
	C436.998810,198.045181 436.998749,198.045181 436.998810,186.986954 
	C436.998871,176.548218 436.912689,166.108139 437.074249,155.671906 
	C437.105530,153.652161 438.105072,151.647385 438.862366,149.303406 
	C443.261139,151.787476 447.455597,154.603821 451.404907,157.748901 
	C450.107269,160.423096 448.215210,162.744064 448.145935,165.118195 
	C447.826660,176.060806 448.015350,187.018250 448.021912,197.970367 
z"/>
<path fill="#9738AC" opacity="1.000000" stroke="none" 
	d="
M359.512085,280.175568 
	C359.973236,295.577240 360.053833,310.908142 359.898010,326.236633 
	C359.881927,327.818359 358.456726,329.385712 357.271118,331.001160 
	C353.867981,329.289398 350.879120,327.536194 348.104126,325.360046 
	C348.878021,323.338684 349.910004,321.744293 349.923676,320.141205 
	C350.037140,306.851196 349.962433,293.559570 349.944580,280.268433 
	C352.984406,280.213654 356.024231,280.158875 359.512085,280.175568 
z"/>
<path fill="#AA159D" opacity="1.000000" stroke="none" 
	d="
M475.589966,206.972397 
	C469.624786,204.756363 463.659607,202.540344 457.353577,199.697357 
	C457.009308,191.156219 456.750885,183.229797 457.129547,175.333954 
	C457.278442,172.229401 458.851593,169.193146 459.776154,166.125778 
	C469.801025,177.558029 474.745514,191.013260 475.649841,206.522079 
	C475.619812,206.978851 475.589966,206.972397 475.589966,206.972397 
z"/>
<path fill="#2387DE" opacity="1.000000" stroke="none" 
	d="
M289.012054,258.415283 
	C298.101898,262.065704 302.821106,269.221100 303.462616,278.562622 
	C304.138885,288.410645 299.744873,296.122131 290.337158,300.806152 
	C289.460175,298.753418 289.041077,296.976349 289.033081,295.197449 
	C288.978058,282.936951 289.008850,270.676056 289.012054,258.415283 
z"/>
<path fill="#390083" opacity="1.000000" stroke="none" 
	d="
M496.014771,404.784729 
	C496.016632,396.495300 496.086029,388.676636 495.988708,380.859985 
	C495.948639,377.639984 497.153564,375.597351 500.483582,375.608307 
	C503.791412,375.619171 505.037567,377.632050 504.983063,380.865479 
	C504.873749,387.350708 505.064972,393.841675 504.917480,400.325378 
	C504.840393,403.715698 506.062378,405.252472 509.558533,405.041443 
	C512.375610,404.871368 515.299561,404.605652 518.006714,405.180237 
	C519.642090,405.527374 520.954224,407.397736 522.411499,408.583679 
	C521.059509,409.950897 519.787720,412.389801 518.341431,412.497986 
	C512.387146,412.943451 506.374481,412.836548 500.393646,412.630524 
	C495.420471,412.459198 496.066803,408.560272 496.014771,404.784729 
z"/>
<path fill="#168AE0" opacity="1.000000" stroke="none" 
	d="
M294.551941,169.609009 
	C295.237976,172.550888 295.939514,175.660233 295.953644,178.772720 
	C296.051025,200.205795 296.034851,221.639633 295.963623,243.072906 
	C295.955475,245.526505 295.381165,247.978241 294.988281,250.864075 
	C293.265930,248.854660 291.624664,246.412003 289.952026,243.213684 
	C289.691956,241.153717 289.250000,239.846588 289.267120,238.545517 
	C289.472382,222.937286 289.773499,207.330322 289.984650,191.722137 
	C290.049225,186.950989 289.915558,182.177155 289.872681,177.404556 
	C289.943726,177.046722 290.014801,176.688889 290.565308,176.042557 
	C291.338440,175.102936 291.632141,174.451813 291.925842,173.800690 
	C292.700317,172.459763 293.474792,171.118851 294.551941,169.609009 
z"/>
<path fill="#0190E3" opacity="1.000000" stroke="none" 
	d="
M289.582642,177.622086 
	C289.915558,182.177155 290.049225,186.950989 289.984650,191.722137 
	C289.773499,207.330322 289.472382,222.937286 289.267120,238.545517 
	C289.250000,239.846588 289.691956,241.153717 289.913452,242.875214 
	C279.802246,225.541351 278.874176,206.933502 284.923950,187.764481 
	C286.005371,184.337906 287.817719,181.142029 289.582642,177.622086 
z"/>
<path fill="#A12DA7" opacity="1.000000" stroke="none" 
	d="
M349.582916,280.356049 
	C349.962433,293.559570 350.037140,306.851196 349.923676,320.141205 
	C349.910004,321.744293 348.878021,323.338684 347.900513,325.072510 
	C344.263977,322.403564 341.044891,319.599213 338.099884,316.383575 
	C339.248230,314.083130 340.830688,312.211578 340.878296,310.301819 
	C341.128693,300.256897 340.991302,290.202332 340.988586,280.151062 
	C343.732819,280.248596 346.477020,280.346130 349.582916,280.356049 
z"/>
<path fill="#168AE0" opacity="1.000000" stroke="none" 
	d="
M288.724243,258.167694 
	C289.008850,270.676056 288.978058,282.936951 289.033081,295.197449 
	C289.041077,296.976349 289.460175,298.753418 289.996399,300.837585 
	C287.469330,302.075714 284.634979,303.007599 281.414612,303.873810 
	C281.018250,288.300232 281.007874,272.792297 280.997650,256.842468 
	C283.477325,256.907074 285.956879,257.413605 288.724243,258.167694 
z"/>
<path fill="#AC21A5" opacity="1.000000" stroke="none" 
	d="
M459.696594,165.827484 
	C458.851593,169.193146 457.278442,172.229401 457.129547,175.333954 
	C456.750885,183.229797 457.009308,191.156219 457.021118,199.540039 
	C454.944458,199.717743 452.859375,199.425781 450.385437,199.077881 
	C449.529846,198.702438 449.063110,198.382935 448.309143,198.016907 
	C448.015350,187.018250 447.826660,176.060806 448.145935,165.118195 
	C448.215210,162.744064 450.107269,160.423096 451.536804,158.055267 
	C451.913818,158.032867 451.975098,158.014801 452.032532,158.380142 
	C453.732330,160.165573 455.374756,161.585678 457.017181,163.005768 
	C457.883820,163.846893 458.750427,164.688034 459.696594,165.827484 
z"/>
<path fill="#AA159D" opacity="1.000000" stroke="none" 
	d="
M329.915192,276.987335 
	C330.417023,277.061829 330.918823,277.136322 331.900970,277.431030 
	C332.552979,277.794403 332.743866,277.904266 332.953949,277.980835 
	C332.953949,277.980835 333.010590,277.975128 333.005066,278.469299 
	C332.997864,286.784698 333.127899,294.609985 332.888641,302.423950 
	C332.837799,304.083862 331.440643,305.702576 330.663757,307.340271 
	C330.663757,307.340271 330.736938,307.144714 330.659546,306.921143 
	C330.223816,306.487030 329.865417,306.276520 329.507050,306.066010 
	C322.854340,296.122345 319.759766,285.019226 318.840088,272.866699 
	C322.075043,273.743469 325.273865,274.972778 328.936584,276.443848 
	C329.557404,276.811188 329.728973,276.911743 329.915192,276.987335 
z"/>
<path fill="#AC21A5" opacity="1.000000" stroke="none" 
	d="
M330.702087,307.667480 
	C331.440643,305.702576 332.837799,304.083862 332.888641,302.423950 
	C333.127899,294.609985 332.997864,286.784698 333.004944,278.497772 
	C335.416260,278.699219 337.822174,279.366394 340.608337,280.092316 
	C340.991302,290.202332 341.128693,300.256897 340.878296,310.301819 
	C340.830688,312.211578 339.248230,314.083130 337.958374,316.066986 
	C337.290710,316.175751 337.104614,316.071655 336.815002,315.364105 
	C336.270782,314.610626 335.896179,314.342346 335.521576,314.074097 
	C333.927856,312.047638 332.334137,310.021149 330.702087,307.667480 
z"/>
<path fill="#0190E3" opacity="1.000000" stroke="none" 
	d="
M512.358398,338.761597 
	C511.987701,315.601959 511.981171,292.391846 512.004883,269.181763 
	C512.006775,267.372406 512.220215,265.563263 512.562439,263.417938 
	C512.956970,263.714905 513.269653,264.347687 513.270752,264.980988 
	C513.312561,288.946686 513.330322,312.912415 513.317017,336.878143 
	C513.316711,337.489227 512.934387,338.100159 512.358398,338.761597 
z"/>
<path fill="#0190E3" opacity="1.000000" stroke="none" 
	d="
M512.638123,260.616730 
	C511.940491,259.263367 511.340179,257.498291 510.719788,255.740311 
	C508.197601,248.593277 505.669250,241.448395 503.162903,233.907837 
	C509.006927,241.466461 511.431549,250.635376 512.638123,260.616730 
z"/>
<path fill="#168AE0" opacity="1.000000" stroke="none" 
	d="
M475.541565,207.443954 
	C475.589966,206.972397 475.619812,206.978851 475.609253,206.955872 
	C475.961060,207.121536 476.323425,207.310181 476.848511,207.758774 
	C476.247192,213.815582 475.483185,219.612427 474.482025,225.682190 
	C474.660950,219.941895 475.077026,213.928711 475.541565,207.443954 
z"/>
<path fill="#A12DA7" opacity="1.000000" stroke="none" 
	d="
M456.921814,162.690018 
	C455.374756,161.585678 453.732330,160.165573 452.030365,158.411972 
	C453.589355,159.510406 455.207916,160.942337 456.921814,162.690018 
z"/>
<path fill="#6A5EC0" opacity="1.000000" stroke="none" 
	d="
M392.422180,141.069641 
	C390.883240,140.951187 389.763580,140.804398 388.362122,140.473511 
	C390.602264,140.296829 393.124268,140.304245 395.926453,140.623871 
	C395.084961,140.971146 393.963226,141.006226 392.422180,141.069641 
z"/>
<path fill="#0190E3" opacity="1.000000" stroke="none" 
	d="
M498.842224,226.711716 
	C497.982330,226.120789 497.061279,225.210770 496.145081,223.940247 
	C497.026947,224.517380 497.903992,225.455002 498.842224,226.711716 
z"/>
<path fill="#0190E3" opacity="1.000000" stroke="none" 
	d="
M291.681183,173.926544 
	C291.632141,174.451813 291.338440,175.102936 290.789551,175.871490 
	C290.835114,175.343414 291.135803,174.697906 291.681183,173.926544 
z"/>
<path fill="#9738AC" opacity="1.000000" stroke="none" 
	d="
M419.161926,141.611664 
	C418.887421,141.865219 418.380157,141.904800 417.494568,141.949951 
	C417.116180,141.955551 417.086517,141.596710 417.099640,141.417313 
	C417.718231,141.291168 418.323730,141.344437 419.161926,141.611664 
z"/>
<path fill="#A12DA7" opacity="1.000000" stroke="none" 
	d="
M335.692383,314.376068 
	C335.896179,314.342346 336.270782,314.610626 336.796021,315.196777 
	C336.585510,315.235809 336.224365,314.956909 335.692383,314.376068 
z"/>
<path fill="#AC21A5" opacity="1.000000" stroke="none" 
	d="
M329.671265,306.349091 
	C329.865417,306.276520 330.223816,306.487030 330.756836,306.959076 
	C330.566132,307.024475 330.200806,306.828339 329.671265,306.349091 
z"/>
<path fill="#6A5EC0" opacity="1.000000" stroke="none" 
	d="
M415.530640,198.010315 
	C419.017365,198.015289 422.044495,198.030136 425.522766,198.033524 
	C426.811890,198.169250 427.649902,198.316452 428.744110,198.652283 
	C413.975006,198.915497 398.949646,198.990097 383.456055,199.019012 
	C385.375275,198.645203 387.762756,198.317078 390.578125,197.979691 
	C395.027191,197.980499 399.048370,197.990570 403.531982,197.990463 
	C407.686646,197.993591 411.378876,198.006897 415.530640,198.010315 
z"/>
<path fill="#AC21A5" opacity="1.000000" stroke="none" 
	d="
M329.833191,276.850464 
	C329.728973,276.911743 329.557404,276.811188 329.294647,276.587463 
	C329.417603,276.460327 329.605072,276.535095 329.833191,276.850464 
z"/>
<path fill="#AC21A5" opacity="1.000000" stroke="none" 
	d="
M332.864075,277.829834 
	C332.743866,277.904266 332.552979,277.794403 332.266663,277.537292 
	C332.403625,277.400757 332.611023,277.485901 332.864075,277.829834 
z"/>
<path fill="#000000" opacity="0.000000" stroke="none"
	d="
M245.958160,385.015198 
	C247.434723,384.952545 248.912735,384.815033 250.387589,384.843140 
	C253.322845,384.899017 256.240173,386.035400 255.493973,389.226349 
	C255.074036,391.022247 252.104187,392.392303 250.055191,393.551483 
	C249.255432,394.003937 247.830704,393.351685 246.336334,392.660217 
	C245.974060,389.750275 245.966110,387.382721 245.958160,385.015198 
z"/>
<path fill="#0A1828" opacity="1.000000" stroke="none"
	d="
M245.616913,385.128937 
	C245.966110,387.382721 245.974060,389.750275 245.967239,392.561554 
	C245.726868,390.417755 245.501266,387.830231 245.616913,385.128937 
z"/>
<path fill="#0A1828" opacity="1.000000" stroke="none"
	d="
M466.202393,397.568115 
	C464.619293,397.232971 463.377045,396.789551 462.134796,396.346130 
	C462.797363,394.670624 463.459930,392.995087 464.122498,391.319580 
	C464.785583,391.357758 465.448700,391.395966 466.111786,391.434143 
	C466.255615,393.442719 466.399445,395.451263 466.202393,397.568115 
z"/>
<path fill="#000000" opacity="0.000000" stroke="none"
	d="
M338.792236,392.908997 
	C335.285706,393.055603 330.654785,396.310120 330.357727,389.789581 
	C330.279816,388.079834 331.358246,384.851776 331.989532,384.830688 
	C334.634216,384.742279 337.609833,385.101166 339.811340,386.401489 
	C340.568359,386.848602 339.421814,390.518677 338.792236,392.908997 
z"/>
</svg>