<svg xmlns="http://www.w3.org/2000/svg" width="207" height="166" viewBox="0 0 207 166" version="1.1"><path d="M 101.071 11.414 C 99.516 13.288, 98.653 49.667, 100.141 50.587 C 100.711 50.940, 97.299 53.175, 92.558 55.554 C 79.052 62.333, 74.074 66.576, 66.893 77.428 C 59.945 87.929, 56.665 104.069, 59.063 115.963 C 61.994 130.504, 72.946 144.833, 86.191 151.459 C 94.720 155.726, 101.598 157.169, 111.622 156.794 L 119.500 156.500 119.536 152.264 C 119.555 149.935, 120.118 147.482, 120.786 146.814 C 121.631 145.969, 122 140.991, 122 130.413 L 122 115.226 128.653 113.971 C 150.067 109.931, 164.559 97.672, 171.637 77.611 C 174.185 70.389, 175.044 56.948, 173.406 49.926 C 169.117 31.541, 153.438 15.908, 134.907 11.540 C 126.235 9.496, 102.736 9.409, 101.071 11.414" stroke="none" fill="#993eaf" fill-rule="evenodd"/><path d="M 74 9.690 C 68.087 10.679, 58.697 14.397, 53.310 17.882 C 41.696 25.394, 33.404 37.809, 30.375 52.219 C 26.260 71.796, 35.528 94.430, 51.984 104.990 C 55.344 107.146, 57 108.890, 57 110.271 C 57 115.027, 57.933 110.872, 58.453 103.801 C 59.195 93.716, 62.080 84.702, 66.893 77.428 C 74.074 66.576, 79.052 62.333, 92.558 55.554 C 97.299 53.175, 100.711 50.940, 100.141 50.587 C 98.671 49.679, 99.515 13.290, 101.048 11.442 C 101.901 10.414, 105.730 9.975, 115.850 9.747 C 123.357 9.577, 117.575 9.401, 103 9.356 C 88.425 9.310, 75.375 9.460, 74 9.690 M 135 11.499 C 138.025 12.230, 140.655 12.675, 140.844 12.487 C 141.376 11.958, 133.747 10.001, 131.500 10.091 C 130.400 10.134, 131.975 10.768, 135 11.499 M 147.161 16.125 C 150.275 17.815, 155.450 21.448, 158.661 24.199 L 164.500 29.200 159.124 24.048 C 154.059 19.194, 144.705 12.998, 142.500 13.036 C 141.950 13.046, 144.047 14.436, 147.161 16.125 M 165.511 32.377 C 166.457 33.820, 167.419 35, 167.650 35 C 168.374 35, 166.045 31.146, 164.891 30.433 C 164.287 30.059, 164.566 30.934, 165.511 32.377 M 169.080 38 C 170.538 41.061, 171 41.628, 171 40.358 C 171 39.821, 170.300 38.509, 169.445 37.441 C 167.978 35.611, 167.958 35.643, 169.080 38 M 173.079 48.583 C 173.127 49.748, 173.364 49.985, 173.683 49.188 C 173.972 48.466, 173.936 47.603, 173.604 47.271 C 173.272 46.939, 173.036 47.529, 173.079 48.583 M 174.158 53 C 174.158 54.375, 174.385 54.938, 174.662 54.250 C 174.940 53.563, 174.940 52.438, 174.662 51.750 C 174.385 51.063, 174.158 51.625, 174.158 53 M 174.596 58.737 C 174.268 59.065, 174 61.414, 174 63.957 C 174 74.452, 168.094 88.778, 160.357 97.049 C 151.615 106.396, 142.217 111.412, 128.653 113.971 L 122 115.226 122 130.413 C 122 140.991, 121.631 145.969, 120.786 146.814 C 120.118 147.482, 119.555 149.935, 119.536 152.264 L 119.500 156.500 110.500 157.061 C 105.550 157.370, 124.337 157.707, 152.250 157.811 L 203 158 202.976 127.750 C 202.962 110.643, 202.503 95.557, 201.921 93.028 C 200.240 85.733, 195.288 76.476, 189.931 70.615 C 184.533 64.708, 175.568 57.765, 174.596 58.737 M 22.500 96.502 C 7.678 101.743, 6.239 123.096, 20.250 129.879 C 32.067 135.599, 45.593 128.848, 47.586 116.235 C 48.925 107.764, 42.758 98.415, 34.277 96.060 C 29.392 94.704, 27.372 94.779, 22.500 96.502 M 58.158 115 C 58.158 116.375, 58.385 116.938, 58.662 116.250 C 58.940 115.563, 58.940 114.438, 58.662 113.750 C 58.385 113.063, 58.158 113.625, 58.158 115 M 59.079 119.583 C 59.127 120.748, 59.364 120.985, 59.683 120.188 C 59.972 119.466, 59.936 118.603, 59.604 118.271 C 59.272 117.939, 59.036 118.529, 59.079 119.583 M 60.031 122.500 C 60.031 123.050, 60.467 124.175, 61 125 C 61.533 125.825, 61.969 126.050, 61.969 125.500 C 61.969 124.950, 61.533 123.825, 61 123 C 60.467 122.175, 60.031 121.950, 60.031 122.500 M 63 129.941 C 63 130.459, 63.445 131.157, 63.989 131.493 C 64.555 131.843, 64.723 131.442, 64.382 130.552 C 63.717 128.820, 63 128.503, 63 129.941 M 5.973 132.704 C 0.510 136.469, -1.153 141.768, 1.423 147.197 C 3.523 151.623, 7.704 154, 13.389 154 C 17.036 154, 18.633 153.406, 21.234 151.082 C 24.194 148.437, 24.500 147.633, 24.500 142.500 C 24.500 137.367, 24.194 136.563, 21.234 133.918 C 18.595 131.560, 17.055 131, 13.207 131 C 10.355 131, 7.453 131.683, 5.973 132.704 M 65.615 134 C 67.071 136.862, 73.302 143.847, 76.393 146.083 C 78.179 147.375, 77.067 145.815, 73.779 142.415 C 70.633 139.162, 67.337 135.600, 66.455 134.500 C 65.573 133.400, 65.195 133.175, 65.615 134 M 84.440 151.454 C 87.029 153.515, 96.517 157.017, 99.288 156.934 C 100.504 156.898, 99.138 156.232, 96.251 155.455 C 93.364 154.677, 89.089 153.112, 86.751 151.976 C 84.222 150.747, 83.286 150.536, 84.440 151.454" stroke="none" fill="#357ed7" fill-rule="evenodd"/></svg>